<svg width="50" height="51" viewBox="0 0 50 51" fill="none" xmlns="http://www.w3.org/2000/svg">
<g clip-path="url(#clip0_1808_1266)">
<path d="M49.9466 45.5952L42.537 11.3647L40.3125 48.4752H47.6232C49.1387 48.4752 50.2672 47.0763 49.9466 45.5952Z" fill="#E2E2E2"/>
<path d="M44.6541 46.2507V21.1451L42.537 11.3647L40.3125 48.4752H42.4296C43.653 48.4752 44.6541 47.4742 44.6541 46.2507Z" fill="#BABABA"/>
<path d="M40.412 9.14062H2.22451C1.00107 9.14062 0 10.1417 0 11.3651V46.2511C0 47.4745 1.00107 48.4756 2.22451 48.4756H40.412C41.6355 48.4756 42.6365 47.4745 42.6365 46.2511V11.3651C42.6366 10.1417 41.6355 9.14062 40.412 9.14062Z" fill="#EFEFEF"/>
<path d="M2.01621 46.2511V11.3651C2.01621 10.1417 3.01729 9.14062 4.24072 9.14062H2.22451C1.00107 9.14062 0 10.1417 0 11.3651V46.2511C0 47.4745 1.00107 48.4756 2.22451 48.4756H4.24072C3.01729 48.4756 2.01621 47.4746 2.01621 46.2511Z" fill="#E2E2E2"/>
<path d="M30.0649 28.9726L27.3818 25.5506C21.0981 20.4715 11.6602 24.9489 11.6602 33.0635C11.6602 38.3969 15.9837 42.7204 21.317 42.7204C26.6503 42.7204 30.9738 38.3968 30.9738 33.0635C30.9739 31.6008 30.6471 30.2151 30.0649 28.9726Z" fill="#85C2EF"/>
<path d="M13.6764 33.0632C13.6764 28.0734 17.4609 23.9678 22.3162 23.4595C16.5746 22.8679 11.6602 27.3716 11.6602 33.0632C11.6602 38.7788 16.6026 43.2614 22.3252 42.6677C17.4656 42.1636 13.6764 38.056 13.6764 33.0632Z" fill="#69AFEB"/>
<path d="M19.7849 37.0305L16.9423 33.3353C16.2243 32.4021 16.399 31.0637 17.3321 30.3457C18.2654 29.628 19.6036 29.8024 20.3216 30.7357L21.5628 32.3491L27.4584 25.4617C28.224 24.5675 29.5701 24.4631 30.4642 25.2284C31.3585 25.9942 31.463 27.3399 30.6974 28.2343L23.0941 37.1169C22.2145 38.1443 20.6099 38.103 19.7849 37.0305Z" fill="#FFA92C"/>
<path d="M30.5364 25.2974L23.0938 33.9922C22.2146 35.0192 20.6097 34.9784 19.7847 33.9057L17.1601 30.4938C16.3802 31.2363 16.2708 32.4631 16.9421 33.3356L19.7847 37.0309C20.6076 38.1008 22.212 38.1476 23.0938 37.1174L30.6972 28.2348C31.441 27.3657 31.3613 26.0726 30.5364 25.2974Z" fill="#F2961D"/>
<path d="M40.412 9.14062H2.22451C1.00107 9.14062 0 10.1417 0 11.3651V17.8885H42.6366V11.3651C42.6366 10.1417 41.6355 9.14062 40.412 9.14062Z" fill="#FF4B4B"/>
<path d="M4.24199 9.14062H2.22451C1.00107 9.14062 0 10.1417 0 11.3651V17.8885H2.01748V11.3651C2.01748 10.1417 3.01855 9.14062 4.24199 9.14062Z" fill="#C83741"/>
<path d="M9.62441 13.5144H7.14844C6.50391 13.5144 5.97656 12.987 5.97656 12.3425V3.69629C5.97656 3.05176 6.50391 2.52441 7.14844 2.52441H9.62451C10.269 2.52441 10.7964 3.05176 10.7964 3.69629V12.3425C10.7963 12.987 10.2689 13.5144 9.62441 13.5144ZM35.4845 13.5144H33.0084C32.3639 13.5144 31.8365 12.987 31.8365 12.3425V3.69629C31.8365 3.05176 32.3639 2.52441 33.0084 2.52441H35.4845C36.129 2.52441 36.6563 3.05176 36.6563 3.69629V12.3425C36.6563 12.987 36.129 13.5144 35.4845 13.5144ZM22.5545 13.5144H20.0784C19.4339 13.5144 18.9065 12.987 18.9065 12.3425V3.69629C18.9065 3.05176 19.4339 2.52441 20.0784 2.52441H22.5545C23.199 2.52441 23.7264 3.05176 23.7264 3.69629V12.3425C23.7264 12.987 23.199 13.5144 22.5545 13.5144Z" fill="#FFCF65"/>
<path d="M7.99277 12.3047V3.73418C7.99277 3.06885 8.53711 2.52441 9.20254 2.52441H7.18633C6.521 2.52441 5.97656 3.06885 5.97656 3.73418V12.3047C5.97656 12.97 6.5209 13.5145 7.18633 13.5145H9.20254C8.53721 13.5144 7.99277 12.97 7.99277 12.3047ZM33.8528 12.3047V3.73418C33.8528 3.06885 34.3972 2.52441 35.0626 2.52441H33.0464C32.3811 2.52441 31.8366 3.06885 31.8366 3.73418V12.3047C31.8366 12.97 32.381 13.5145 33.0464 13.5145H35.0626C34.3972 13.5144 33.8528 12.97 33.8528 12.3047ZM20.9228 12.3047V3.73418C20.9228 3.06885 21.4672 2.52441 22.1325 2.52441H20.1163C19.451 2.52441 18.9065 3.06885 18.9065 3.73418V12.3047C18.9065 12.97 19.451 13.5145 20.1163 13.5145H22.1325C21.4672 13.5144 20.9228 12.97 20.9228 12.3047Z" fill="#FFB450"/>
</g>
<defs>
<clipPath id="clip0_1808_1266">
<rect y="0.5" width="50" height="50" fill="white"/>
</clipPath>
</defs>
</svg>
